<?xml version="1.0" encoding="UTF-8" standalone="no"?>
<!-- Generator: Adobe Illustrator 16.0.0, SVG Export Plug-In . SVG Version: 6.00 Build 0)  -->

<svg
   xmlns:dc="http://purl.org/dc/elements/1.1/"
   xmlns:cc="http://creativecommons.org/ns#"
   xmlns:rdf="http://www.w3.org/1999/02/22-rdf-syntax-ns#"
   xmlns:svg="http://www.w3.org/2000/svg"
   xmlns="http://www.w3.org/2000/svg"
   xmlns:sodipodi="http://sodipodi.sourceforge.net/DTD/sodipodi-0.dtd"
   xmlns:inkscape="http://www.inkscape.org/namespaces/inkscape"
   version="1.1"
   id="Layer_1"
   x="0px"
   y="0px"
   width="999px"
   height="843px"
   viewBox="0 0 999 843"
   enable-background="new 0 0 999 843"
   xml:space="preserve"
   inkscape:version="0.92.1 r15371"
   sodipodi:docname="Mediterranean-sea-526-pt.svg"><metadata
     id="metadata3834"><rdf:RDF><cc:Work
         rdf:about=""><dc:format>image/svg+xml</dc:format><dc:type
           rdf:resource="http://purl.org/dc/dcmitype/StillImage" /><dc:title /></cc:Work></rdf:RDF></metadata><defs
     id="defs3832" /><sodipodi:namedview
     pagecolor="#ffffff"
     bordercolor="#666666"
     borderopacity="1"
     objecttolerance="10"
     gridtolerance="10"
     guidetolerance="10"
     inkscape:pageopacity="0"
     inkscape:pageshadow="2"
     inkscape:window-width="1366"
     inkscape:window-height="705"
     id="namedview3830"
     showgrid="false"
     inkscape:zoom="0.90254674"
     inkscape:cx="499.5"
     inkscape:cy="565.2107"
     inkscape:window-x="-8"
     inkscape:window-y="-8"
     inkscape:window-maximized="1"
     inkscape:current-layer="Layer_1" /><rect
     fill="#FFFFFF"
     width="999"
     height="843"
     id="rect3682" /><polygon
     fill="#FAFFA9"
     points="49.5,499.5 55.5,519 70,528 89.669,532.5 102,532.5 120,532.5 155.5,532.5 180,537 194,539.5   205,537 237,523 275,523 293,523.5 310.5,515 336,512.5 364,519.5 379,524 417,519.5 436.5,515 484.834,516 499.5,524   514.001,539.5 530.167,563 546.5,575 561.672,577.5 570.751,593.5 573,616 584.5,631.33 601,645 612,660.334 620.5,683.997   627.501,714 639,736.5 666,753 701,762.5 729.5,771.5 757,783 775.34,788.5 807,788.5 844.5,788.5 875.5,800.5 904,807   943.332,815.5 975.5,815.5 969,776.5 836.332,717.501 758,631.33 711,570.5 690.5,534.5 708,461.5 689,446 624.5,436 526,427.5   453.5,436 374,436 316.5,443.334 179.5,465.5 127.5,464.5 102.5,471 "
     id="polygon3684" /><path
     fill="#FF8C5A"
     d="M653.114-1.368c-4.877-2.937-7.061-8.054-14.013-9.607c-6.052-1.353-12.995-0.165-19.135-0.165  c-16.805,0-33.193,0.679-49.83,2.15c-33.521,2.964-66.979,3.226-100.694,3.226c-22.08,0-48.73-3.332-70.136,2.185  c-9.296,2.396-21.509,10.899-12.366,21.229c5.065,5.721,26.461,11.953,33.655,14.541c13.354,4.804,28.204,6.21,42.53,5.053  c18.025-1.456,33.832-11.112,51.294-15.071c25.388-5.755,56.603-1.057,82.791-1.054c14.824,0.001,42.466,0.467,55.658,6.931  c8.521,4.174,17.701,13.533,26.136,18.956l12,23l27.333,22.667l28.667,33.333l50,38l45.659,6.667c0,0,24.995,16,25.001,18  s22.006,24,24.006,26s30,26.663,30,26.663l34.661,22.671l7.339,27.996v46.002v16.667l-6.543,9.976l6.543,20.691L999,382.668  c0,0,0-382.668-0.001-382.668c-49.224,0-98.448,0-147.673,0c-45.331,0-90.663,0-135.994,0c-15.39,0-30.778,0-46.168,0  c-4.151,0-10.648,1.156-14.498-0.558C654.116-0.802,653.602-1.074,653.114-1.368z"
     id="path3686" /><polygon
     fill="#CDCDA6"
     points="237.668,0 291.001,0 291.001,31.336 295.001,76.669 273.001,104.669 215.668,140.002   153.667,172.669 123.001,212.669 107.001,280.001 95.668,332.001 39.668,398.001 0,395.336 0,31.336 21.001,38.669 33.668,48.669   101.668,45.336 138,43.336 158.001,25.334 177.001,17.668 187.001,17.668 199.668,6.002 205.667,0 "
     id="polygon3688" /><polygon
     fill="#FFBE76"
     points="158.001,30.002 151.001,39.338 138,58.671 119.668,62.671 91.001,57.338 70.333,53.338   43.668,56.005 39.001,62.671 19.001,58.005 0,35.336 0,0 82.335,0 101.001,8.005 "
     id="polygon3690" /><path
     fill="#A7F0F0"
     d="M276.333,0v6l-6,8l3,4.667v8.667l3,8.667l-6,6l3,7.333l6.333,10L284.333,66l-7,6.667h-7V76l7,6v8.667  l-7,8.667l-18,7.333L235,112l-15.333,8L207,130l-11.333,6h-19.333l-14.667,4.667L150.333,146L137,153.333v8V170l-8.667,7.333  h-10.667l-12.667,14L89,206l-6.667,11.333l-8,12.667l-10.667,8.667l-3.333,20.667v15.333l4.667,14L79,302l8,7.333l-9.333,8  l-10.667,4l-10.667,4l-8.667,6L40.333,338l-12,11.333v7.333L21.667,360l-3.333,9.333v4l11.333-8l1.333,8v8L22.333,388h-16L0,390.667  v123.999h5.667l6.667,6.667l8-8.667l10-1.333l6,10h10l8.667-10l13.333-11.334l10.667-8l12.667-2.666l10-2l17.333-8l10.667-4  l12.5,0.666l8.167,3.334l13.333-3.334L177,476.665l12.667-4h16.667h9.333l10.667-11.333l10,2.666l20,0.667l16-3.333l16-6l23.333,6  l22-0.667l16,5.333l10,9.334l5.333,6.666l14.667-6l9.333-6.666l13.333,2.666l15.333-10l2.667-6.666L435,452.665l7.333,9.333  l11.333-1.333l8.667,4.667L475,463.998v-7.333v-10l13.333,4l11.166,5.333l14.167,4.667l3.333,6.667l10,0.666l13.334-2H553l16-4.666  l23.334-14L603,440.665l13.334,1.333l13.333,10.667l7.333-7.333l9.334-0.667l8.666,6.667v18l4,6.666l14-4.666l16-14.667  l10.667,0.667l4.667,5.333L701,473.998l-6,12l-10,12.667l-12,14l0.667,12l8.667,14L689,553.332l11.334,6.666l4,8.667v12  l7.333,11.333l-14.667,12l-5.333,14l-8.667,16l-16,9.334l-9.333,9.998l-12,10.666l6.667,14.667l1.333,13.333l14,6.667h6.667h10  l-0.667,15.333H687l8-8l8-1.333l4.667,9.333l-0.667,4h-6.666l-1.334,6h12.667l7.333,4.667l-12.666,4L711,737.33h8h7.334l12,5.333  h9.333l-3.333-6l7.333-3.333l10,6l3.333,7.333l11.334,13.332l17.333,4L817,759.328l27.334-2.666l20,3.333l15.333-2l16,6l16.666,8  l18.667,6l18.667,2.667l12,7.333c0,0,6.666,8,6.666,10s0,18,0,18L979,831.328L990.333,843H999V356.666L989.667,362l-1.334,14.667  l-8,8L965,382l-5.333-4.667l-3.334-16.667l8.667-3.333l2-8l4-5.333l-10-4l4-14.667l13.333-4l10-1.333l-2-6.667l-8-10.667l-1.333-14  l-2-10L964.333,268l-8.666-11.333v-15.333l-7.334-12.667l-14.666,4l-14.667-6l-10.667-9.333l-4-11.333l-4-13.333l-10,1.333L877,192  l-5.333-14.667L859,178l-3.333-7.333l-4-5.333l-12.667-10l-17.333-4.667l-5.334-3.333l-10.666,3.333l-21.334-10.665l-14.666-9.333  l-17.334-13.333l-12-17.333l-22-21.333L709,72.001l-10,2.667l-3.333-7.333l0.666-5.333L687,51.334l-8.667-8l-7.333-10l-15.333-1.333  l-1.334-9.333l4-6.667l-6-16.001h181.334l6,20.001L843,34.668l8,12l16.667,14l20,15.333l16,10.667l10.666,6H943l22-0.667l6,9.333  l-14,7.333v10.667l14.667,12.667l27.333,4V28.668l-11.333-4l-2-6.667L999,15.334V8.001l-15.333,2L967,5.334L962.333,0H617.667  H469.001v8.001l-9.333,2l-11.333-3.333l-10.667,6l-16-0.667h-14l-10-6L394.334,0H276.333z"
     id="path3692"
     style="fill:#c6ecff;fill-opacity:1;stroke:#0978ab;stroke-opacity:1" /><polygon
     fill="#FAFFA9"
     points="710.334,609.997 704.334,613.997 701,621.33 693,625.33 693,631.33 701.667,631.33 710.334,627.997   717.667,620.664 717.667,612.664 "
     id="polygon3694"
     style="stroke:#0978ab;stroke-opacity:1" /><polygon
     fill="#FAFFA9"
     points="697,683.997 688.334,683.997 684.334,683.997 684.334,691.997 690.667,697.33 701,697.33   701,690.664 "
     id="polygon3696"
     style="stroke:#0978ab;stroke-opacity:1" /><path
     fill="#FAFFA9"
     d="M747.667,473.33H755l4.667,4c0,0,1.333,2,0,4.667s-5.704,4-5.704,4L745,482.664v-6.667L747.667,473.33z"
     id="path3698"
     style="stroke:#0978ab;stroke-opacity:1" /><polygon
     fill="#FAFFA9"
     points="879.667,517.997 885.667,517.997 892.334,517.997 892.334,522.664 889,529.997 879.667,527.33 "
     id="polygon3700"
     style="stroke:#0978ab;stroke-opacity:1" /><polygon
     fill="#FAFFA9"
     points="895.667,529.997 900.334,534.664 900.334,542.664 892.334,545.33 886,537.664 886,532.664 "
     id="polygon3702"
     style="stroke:#0978ab;stroke-opacity:1" /><path
     fill="#FAFFA9"
     d="M597,25.334h12.667v16.667l3.333,14l2.667,12.667c0,0,1.333,17.333,0,19.333s0.593,14,0.593,14  l-12.593,8.667v20L593,145.334l-12.666-4.667l-8.667-4l-2.667-8v-3.333l-4.666-2l3.333-12.667l-8-0.667l-2.667-6l7.334-9.333  L557,90.001l4-10.667l-4-6.667l4.667-6.667l8-8l9.333-4l7.63-8L597,51.334l3.334-6.667L595,38.001L597,25.334z"
     id="path3704"
     style="stroke:#0978ab;stroke-opacity:1" /><polygon
     fill="#FAFFA9"
     points="595.667,150.667 607,157.334 616.26,160.667 616.26,171.334 616.26,177.334 623.667,182.667   623.667,192.001 630.334,204.667 630.334,212.667 621,216.667 621,223.334 624.334,236.667 623.667,252.001 621,260.667   621,285.334 616.26,304.667 613,311.334 600.334,307.334 591,311.334 586.63,324.001 580.334,329.334 569,326.001 562.334,332.001   557,332.001 557,322.667 549,313.334 549,301.334 544.334,287.334 551,278.667 552.334,272.001 547.667,268.001 548.334,261.334   557,264.667 557,260.001 557,248.667 547.667,252.001 544.334,244.001 544.334,236.001 552.334,227.334 544.334,209.334   535.667,198.667 535.667,187.334 535.667,174.001 546.334,178.667 557,178.667 567.667,174.667 579,166.001 589.667,160.001 "
     id="polygon3706"
     style="stroke:#0978ab;stroke-opacity:1" /><polygon
     fill="#FAFFA9"
     points="169.001,292.001 161.001,292.001 151.667,296.001 147.001,306.001 152.334,310.667 158.001,310.667   169.001,298.667 "
     id="polygon3708"
     style="stroke:#0978ab;stroke-opacity:1" /><polygon
     fill="#FAFFA9"
     points="153.667,316.667 164.334,320.667 169.001,326.667 165.001,332.001 153.667,327.334 "
     id="polygon3710"
     style="stroke:#0978ab;stroke-opacity:1" /><polygon
     fill="#FAFFA9"
     points="291.001,222.667 291.001,230.001 291.001,238.001 303.667,238.001 312.334,238.001 320.334,248.001   327.001,244.001 327.001,232.667 316.334,222.667 300.334,222.667 "
     id="polygon3712"
     style="stroke:#0978ab;stroke-opacity:1" /><polygon
     fill="#FAFFA9"
     points="252.334,235.334 241.001,235.334 229.667,241.334 215.667,248.001 209.001,258.667 217.667,266.001   226.334,266.001 230.668,259.334 230.668,268.667 230.668,274.001 245.001,274.001 252.334,280.001 258.334,280.001   265.001,271.334 277.001,262.667 277.001,251.334 271.001,244.667 262.334,248.001 261.001,241.334 260.334,235.334 "
     id="polygon3714"
     style="stroke:#0978ab;stroke-opacity:1" /><polygon
     fill="#FF8C5A"
     points="952.999,352.001 942.999,352.001 938.332,359.335 933.666,355.668 926.332,367.335 917.666,362.668   910.332,359.668 901.666,367.335 886,376.668 865.666,376.668 854.332,386.668 846.332,383.335 838.332,375.335 829.666,375.335   826.332,369.335 815.666,369.335 808.999,380.668 799.666,378.001 799.666,374.668 785.666,376.668 778.999,386.668   778.999,397.335 778.999,407.335 786.999,416.001 803.666,416.001 812.332,426.668 822.999,426.668 831.666,436 839.666,436   851.666,442.002 862.332,450.002 874.332,450.002 888.999,457.335 896.999,468.002 904.999,473.33 915.666,476.002 927.666,476.002   932.332,479.664 938.999,485.997 943.666,473.33 939.666,466.668 946.999,460.668 948.332,449.335 943.666,442.002 940.332,432.001   930.332,425.335 932.999,418.999 933.666,401.335 940.999,391.335 944.332,374.001 956.333,360.666 "
     id="polygon3716"
     style="stroke:#0978ab;stroke-opacity:1" /><circle
     cx="836.332"
     cy="382.668"
     r="6.333"
     id="circle3718" /><text
     font-size="14"
     id="text3720"
     style="font-size:14px;line-height:0%;font-family:MyriadPro-Regular"
     x="800.99902"
     y="400.0015">Palermo</text>
<circle
     cx="936.999"
     cy="449.668"
     r="6.333"
     id="circle3722" /><text
     font-size="14"
     id="text3724"
     x="880"
     y="439.33401"
     style="font-size:14px;line-height:0%;font-family:MyriadPro-Regular">Siracusa</text>
<polygon
     fill="#C1E79C"
     points="205.667,0 205.667,8.002 205.667,17.336 205.667,26.002 201.667,35.336 191,32.002 177,22.002   158.001,30.002 147.001,26.669 134.333,24.002 123.667,20.669 107.667,17.668 98.333,17.668 93.667,7.336 78.333,7.336 70.333,0 "
     id="polygon3726" /><circle
     cx="43.669"
     cy="94.669"
     r="6.333"
     id="circle3728" /><circle
     cx="161.334"
     cy="129.336"
     r="6.333"
     id="circle3730" /><circle
     cx="205.667"
     cy="116.669"
     r="6.333"
     id="circle3732" /><circle
     cx="183.669"
     cy="45.336"
     r="6.333"
     id="circle3734" /><circle
     cx="50.002"
     cy="248.001"
     r="6.333"
     id="circle3736" /><text
     transform="translate(11.6689,86.0024)"
     font-size="14"
     id="text3738"
     style="font-size:14px;line-height:0%;font-family:MyriadPro-Regular">Saragoça</text>
<text
     transform="translate(7.6694,238.6694)"
     font-size="14"
     id="text3740"
     style="font-size:14px;line-height:0%;font-family:MyriadPro-Regular">Valência</text>
<text
     font-size="14"
     id="text3742"
     x="192.0024"
     y="45.335899"
     style="font-size:14px;line-height:0%;font-family:MyriadPro-Regular">Urgel</text>
<text
     font-size="14"
     id="text3744"
     x="78.232857"
     y="135.87079"
     style="font-size:14px;line-height:0%;font-family:MyriadPro-Regular">Tarragona</text>
<text
     font-size="14"
     id="text3746"
     x="159.63472"
     y="105.43423"
     style="font-size:14px;line-height:0%;font-family:MyriadPro-Regular">Barcelona</text>
<circle
     cx="589.334"
     cy="304.334"
     r="6.334"
     id="circle3748" /><text
     transform="translate(561.6719,292.001)"
     font-size="14"
     id="text3750"
     style="font-size:14px;line-height:0%;font-family:MyriadPro-Regular">Caralis</text>
<polygon
     fill="#FF8C5A"
     points="645.006,40.005 653.672,40.005 657.672,40.005 657.672,50.005 651.339,54.005 645.006,54.005   640.339,47.005 "
     id="polygon3752" /><circle
     cx="936.999"
     cy="162.668"
     r="6.333"
     id="circle3754" /><circle
     cx="872.668"
     cy="169.001"
     r="6.333"
     id="circle3756" /><circle
     cx="769.006"
     cy="104.002"
     r="6.333"
     id="circle3758" /><circle
     cx="803.672"
     cy="31.667"
     r="6.333"
     id="circle3760" /><text
     transform="translate(775.3398,21.3379)"
     font-size="14"
     id="text3762"
     style="font-size:14px;line-height:0%;font-family:MyriadPro-Regular">Tagina</text>
<text
     transform="translate(745.6729,97.6685)"
     font-size="14"
     id="text3764"
     style="font-size:14px;line-height:0%;font-family:MyriadPro-Regular">Roma</text>
<text
     transform="translate(859.0059,159.3379)"
     font-size="14"
     id="text3766"
     style="font-size:14px;line-height:0%;font-family:MyriadPro-Regular">Nápoles</text>
<polygon
     fill="#A7F0F0"
     points="469.5,662.834 460.333,662.834 455.667,661.834 451.167,655.501 448.5,657.834 442.5,658.001   439.5,649.334 436.167,650.501 432,654.167 424,653.834 410.833,641.501 405.333,642.667 401.833,645.667 401.833,653.834   396.167,660.167 398.833,666.001 407.5,674.834 415.667,676.001 421,673.667 418.667,670.001 409.667,669.501 406.833,666.667   406.167,658.001 411.333,653.001 418,653.501 422.667,657.501 425.333,659.834 436.667,658.751 437.333,663.001 439.167,674.001   444.167,677.501 446.833,677.501 445.667,675.334 442.667,670.667 442.167,662.667 445.5,661.334 449.333,661.834 453.333,666.834   456.167,675.334 456.5,679.667 458.5,678.501 459.333,672.501 459.5,666.834 469.5,666.834 469.5,665.501 "
     id="polygon3768"
     style="stroke:#0978ab;stroke-opacity:1" /><polygon
     fill="#A7F0F0"
     points="526.834,668.167 530.167,667.167 526.834,662.167 523.501,660.334 518.501,662.834 516.001,665.334   505.167,665.334 499.5,666.001 488.667,667.001 484.834,668.834 484.834,671.001 489.334,671.001 492.834,668.667 502.001,668.834   511.167,668.834 514.001,673.001 516.167,673.001 517.167,670.001 519.667,666.668 524.334,665.834 "
     id="polygon3770"
     style="stroke:#0978ab;stroke-opacity:1" /><polygon
     fill="#A7F0F0"
     points="627.501,680.167 623.334,675.501 616.667,675.501 614.167,678.667 586.834,679.167 579.667,671.001   571.834,669.167 557.334,671.334 546.001,673.001 532.167,681.334 520.667,687.667 514.001,687.667 516.167,694.334   521.667,697.001 531.001,708.001 540.501,717.501 548.334,716.834 555.501,710.501 563.834,711.834 570.001,708.667   573.834,703.334 567.334,700.834 561.001,699.667 553.834,695.667 550.834,692.001 552.834,685.501 558.334,685.834   561.672,687.667 563.167,687.001 561.672,685.001 561.672,680.501 561.672,677.334 569.167,678.334 575.667,683.834   581.834,687.667 597.501,688.001 608.001,682.501 624.501,682.834 "
     id="polygon3772"
     style="stroke:#0978ab;stroke-opacity:1" /><circle
     cx="814.5"
     cy="763"
     r="6.333"
     id="circle3774" /><g
     id="g3776"><text
       transform="translate(793.166,782.5)"
       font-size="14"
       id="text3778"
       style="font-size:14px;line-height:0%;font-family:MyriadPro-Regular">Trípoli</text>
</g><circle
     cx="670.5"
     cy="537.5"
     r="6.334"
     id="circle3780" /><text
     font-size="14"
     id="text3782"
     x="600"
     y="556"
     style="font-size:14px;line-height:0%;font-family:MyriadPro-Regular">Hadrumeto</text>
<circle
     cx="652.333"
     cy="463"
     r="6.333"
     id="circle3784" /><text
     font-size="14"
     id="text3786"
     x="654"
     y="452.66599"
     style="font-size:14px;line-height:0%;font-family:MyriadPro-Regular">Cartago</text>
<circle
     cx="621.167"
     cy="473.33"
     r="6.333"
     id="circle3788" /><text
     font-size="14"
     id="text3790"
     x="570.75098"
     y="493"
     style="font-size:14px;line-height:0%;font-family:MyriadPro-Regular">Tricamaro</text>
<circle
     cx="512.5"
     cy="469.334"
     r="6.333"
     id="circle3792" /><text
     transform="translate(461,482)"
     font-size="14"
     id="text3794"
     style="font-size:14px;line-height:0%;font-family:MyriadPro-Regular">Hipona</text>
<circle
     cx="192.5"
     cy="479.5"
     r="6.333"
     id="circle3796" /><text
     transform="translate(169.001,496)"
     font-size="14"
     id="text3798"
     style="font-size:14px;line-height:0%;font-family:MyriadPro-Regular">Cesareia</text>
<rect
     x="21.107"
     y="588.86"
     fill="#FFFFFF"
     stroke="#000000"
     stroke-miterlimit="10"
     width="336.559"
     height="244.086"
     id="rect3800" /><rect
     x="30.785"
     y="667.584"
     fill="#FAFFA9"
     width="33.333"
     height="24.167"
     id="rect3808" /><rect
     x="30.785"
     y="698.82"
     fill="#FFBE76"
     width="33.333"
     height="24.166"
     id="rect3810" /><rect
     x="30.785"
     y="728.999"
     fill="#C1E79C"
     width="33.333"
     height="24.168"
     id="rect3812" /><rect
     x="30.785"
     y="758.332"
     fill="#FF8C5A"
     width="33.333"
     height="24.168"
     id="rect3814" /><rect
     x="30.785"
     y="788.332"
     fill="#CDCDA6"
     width="33.333"
     height="24.168"
     id="rect3816" /><text
     transform="translate(70.8135,687.5)"
     font-size="25"
     id="text3818"
     style="font-size:25px;line-height:0%;font-family:MyriadPro-Regular">Reino Vândalo</text>
<text
     transform="translate(69.3511,719)"
     font-size="25"
     id="text3820"
     style="font-size:25px;line-height:0%;font-family:MyriadPro-Regular">Território vasco</text>
<text
     transform="translate(70.7266,748.5)"
     font-size="25"
     id="text3822"
     style="font-size:25px;line-height:0%;font-family:MyriadPro-Regular">Reino Merovíngio</text>
<text
     transform="translate(71.7261,780)"
     font-size="25"
     id="text3824"
     style="font-size:25px;line-height:0%;font-family:MyriadPro-Regular">Reino Ostrogótico</text>
<text
     transform="translate(71.1011,809)"
     font-size="25"
     id="text3826"
     style="font-size:25px;line-height:0%;font-family:MyriadPro-Regular">Reino Visigótico</text>
<text
     transform="translate(917.8828,150.6675)"
     font-size="14"
     id="text3828"
     style="font-size:14px;line-height:0%;font-family:MyriadPro-Regular">Compsa</text>
<text
     xml:space="preserve"
     style="font-style:normal;font-variant:normal;font-weight:bold;font-stretch:normal;line-height:0%;font-family:'Liberation Sans';-inkscape-font-specification:'Liberation Sans Bold';text-align:center;letter-spacing:0px;word-spacing:0px;writing-mode:lr-tb;text-anchor:middle;fill:#000000;fill-opacity:1;stroke:none"
     x="173.17442"
     y="620.8139"
     id="text3841"><tspan
       sodipodi:role="line"
       id="tspan3843"
       x="173.17442"
       y="620.8139"
       style="font-size:22px;line-height:1.25">Mediterrâneo Ocidental</tspan><tspan
       sodipodi:role="line"
       x="173.17442"
       y="648.3139"
       id="tspan3845"
       style="font-size:22px;line-height:1.25">em 526</tspan></text>
</svg>